<?xml version="1.0" standalone="no"?>
<!DOCTYPE svg PUBLIC "-//W3C//DTD SVG 20010904//EN"
 "http://www.w3.org/TR/2001/REC-SVG-20010904/DTD/svg10.dtd">
<svg version="1.0" xmlns="http://www.w3.org/2000/svg"
 width="1108.000000pt" height="802.000000pt" viewBox="0 0 1108.000000 802.000000"
 preserveAspectRatio="xMidYMid meet">

<g transform="translate(0.000000,802.000000) scale(0.100000,-0.100000)"
fill="#000000" stroke="none">
<path d="M0 5155 l0 -2865 28 0 c15 0 51 11 80 25 30 14 62 25 72 25 47 0 51
11 20 47 -17 19 -30 42 -28 50 2 8 32 26 67 39 77 29 81 26 81 -62 0 -37 5
-66 13 -71 6 -6 93 -14 192 -18 98 -3 188 -11 198 -17 22 -11 32 -1 44 41 4
16 1 28 -11 36 -14 11 -24 65 -11 65 3 0 15 -10 26 -21 26 -26 39 -13 39 40 0
35 -35 87 -74 106 -15 8 -20 17 -16 35 7 37 5 98 -4 160 -7 53 -6 56 26 91 62
68 64 76 43 203 -21 130 -17 191 15 236 23 32 37 83 70 250 10 52 25 109 34
126 9 17 21 69 27 115 6 46 17 107 25 134 8 28 19 114 24 191 5 78 14 154 20
168 13 34 13 209 0 273 -5 26 -14 143 -20 258 -6 116 -17 278 -25 360 -21 203
-20 601 0 670 9 27 20 97 25 157 10 116 29 169 81 224 16 17 43 55 59 85 16
30 38 70 49 89 11 19 47 64 80 100 33 36 63 77 66 93 7 29 31 47 63 47 11 0
36 12 55 28 20 15 53 40 74 55 l38 28 30 -33 29 -33 191 -1 c156 -1 196 -4
222 -18 18 -9 65 -23 105 -31 65 -14 85 -14 212 1 122 15 164 15 306 5 91 -6
192 -18 225 -26 68 -17 303 -19 425 -5 195 24 482 39 543 28 73 -12 227 -3
295 17 32 10 123 16 287 19 132 3 267 10 300 16 33 6 92 8 130 4 60 -5 76 -3
105 14 19 11 57 23 83 27 26 3 65 14 87 24 30 13 52 16 92 11 29 -4 68 -3 88
1 19 4 96 13 170 19 74 6 149 15 165 20 79 25 320 51 453 50 141 -2 162 -1
324 20 46 5 264 10 485 10 390 0 405 -1 461 -22 48 -18 80 -22 197 -23 123 -1
146 -4 192 -24 38 -17 62 -21 85 -17 18 4 60 9 93 12 56 6 64 4 94 -22 42 -35
57 -72 38 -91 -8 -8 -47 -19 -86 -24 -40 -5 -91 -14 -114 -21 -58 -17 -119
-82 -147 -158 -12 -33 -26 -63 -31 -66 -5 -3 -13 -24 -19 -47 -10 -39 -50
-131 -88 -202 -12 -22 -17 -66 -20 -161 -4 -114 -2 -136 16 -180 11 -27 24
-76 27 -109 4 -33 13 -72 21 -87 21 -41 18 -73 -10 -86 -20 -9 -27 -7 -46 13
-19 20 -26 22 -49 14 -23 -9 -29 -7 -53 20 -15 17 -30 26 -33 21 -3 -6 -25
-10 -47 -10 -29 0 -56 -9 -90 -31 -37 -24 -61 -32 -100 -33 -48 -1 -51 1 -61
29 -13 39 -42 71 -94 102 -23 13 -51 39 -61 57 -14 24 -35 39 -68 52 -27 10
-62 26 -79 36 -16 10 -41 18 -54 18 -16 0 -48 23 -95 68 -40 38 -96 80 -124
94 l-52 26 -61 -26 c-106 -47 -201 -178 -219 -302 -5 -39 -17 -82 -27 -96 -12
-19 -18 -65 -25 -184 -9 -152 -8 -162 12 -207 12 -27 25 -84 30 -128 12 -118
34 -195 80 -285 11 -22 20 -54 20 -72 0 -18 11 -55 25 -83 13 -27 25 -62 25
-76 0 -40 20 -56 79 -63 41 -4 62 -12 85 -34 36 -34 98 -47 143 -32 20 7 38 8
56 1 24 -10 27 -15 27 -62 0 -47 6 -61 64 -148 71 -106 108 -136 179 -146 26
-3 47 -10 47 -16 0 -15 33 -10 68 11 28 17 36 18 64 7 l31 -13 -42 -48 c-51
-59 -45 -70 39 -71 78 0 97 17 55 51 l-30 24 43 0 c29 0 42 -4 42 -14 0 -28
30 -24 72 9 24 20 58 42 75 50 18 8 39 24 45 35 7 11 18 20 25 20 40 0 133
141 133 202 0 30 19 58 40 58 11 0 35 14 54 30 31 27 37 29 55 18 15 -9 23
-28 27 -61 5 -35 12 -51 26 -56 19 -7 53 -56 81 -117 14 -30 65 -74 85 -74 16
0 26 -84 13 -109 -10 -17 -21 -21 -60 -21 l-48 0 -7 -52 c-10 -87 -7 -119 14
-145 15 -19 17 -30 10 -43 -15 -29 -12 -74 10 -133 24 -63 53 -94 95 -99 25
-3 34 4 67 47 40 53 70 146 72 222 1 31 7 47 22 57 32 23 49 71 35 102 -16 37
-15 37 37 31 30 -3 53 -1 64 7 14 10 31 10 86 -2 38 -8 82 -12 97 -8 15 4 53
31 83 61 54 52 57 54 65 32 11 -30 0 -85 -24 -115 -10 -14 -19 -39 -19 -57 0
-21 -11 -46 -30 -70 -16 -21 -30 -42 -30 -47 0 -5 -11 -19 -25 -31 -25 -21
-25 -24 -14 -77 10 -52 9 -61 -16 -120 -15 -36 -33 -72 -40 -80 -7 -8 -16 -26
-20 -40 -4 -14 -16 -32 -28 -41 -26 -21 -14 -39 27 -39 28 0 34 5 45 35 l13
36 19 -25 c23 -29 24 -40 4 -56 -9 -7 -15 -23 -13 -34 2 -17 13 -23 63 -30
123 -20 357 -5 418 26 9 5 17 17 17 28 0 27 41 35 104 21 59 -13 97 -36 91
-54 -5 -13 2 -26 27 -45 23 -18 88 9 88 36 0 43 73 61 110 27 20 -18 23 -18
33 -4 7 8 36 32 66 52 44 30 62 37 103 37 46 0 107 -21 109 -38 5 -61 10 -77
34 -102 56 -59 119 -44 131 31 5 28 14 45 33 57 14 9 51 42 81 74 40 42 63 58
81 58 38 0 95 -26 104 -47 4 -10 9 -63 10 -118 2 -55 8 -113 14 -128 l11 -28
29 22 c50 37 76 118 52 162 -12 23 -12 29 3 51 29 45 60 59 99 47 43 -15 72
-55 80 -111 7 -52 28 -104 58 -141 26 -33 49 -126 49 -202 0 -48 4 -62 25 -82
13 -14 29 -25 35 -25 6 0 28 -11 49 -24 38 -24 38 -25 33 -79 l-4 -56 39 -10
c31 -9 51 -8 92 5 46 13 51 17 45 37 -4 12 -23 36 -42 53 -33 28 -36 36 -37
85 0 30 -6 63 -12 74 -5 11 -9 25 -7 30 1 6 10 84 19 174 l16 163 -21 23 c-24
26 -18 30 47 34 56 2 123 -16 151 -42 l22 -20 0 2336 0 2337 -5540 0 -5540 0
0 -2865z m9422 1933 c31 -24 91 -68 133 -98 56 -39 90 -73 122 -120 66 -99 89
-129 114 -149 24 -20 19 -41 -11 -41 -31 0 -35 -52 -9 -132 12 -38 28 -72 35
-75 7 -2 18 -24 25 -49 7 -24 19 -44 26 -44 7 0 13 -9 13 -19 0 -11 3 -26 6
-35 4 -11 1 -16 -10 -16 -9 0 -16 7 -16 15 0 8 -11 25 -24 36 -14 12 -30 34
-36 50 -7 16 -15 29 -19 29 -12 0 -77 -93 -91 -130 -8 -19 -30 -62 -49 -95
-32 -54 -35 -67 -33 -130 1 -38 -3 -129 -9 -201 -13 -156 -2 -274 38 -404 40
-133 54 -161 109 -225 35 -40 55 -75 62 -105 6 -25 18 -70 28 -100 22 -75 25
-263 4 -283 -20 -20 -67 -30 -75 -16 -4 5 -6 40 -5 77 3 141 -2 257 -11 269
-7 8 -63 13 -177 16 -104 2 -192 10 -232 19 -36 9 -83 16 -104 16 -21 0 -42 4
-47 9 -9 9 13 88 42 145 11 20 19 46 19 56 0 11 12 36 26 57 38 56 49 129 36
235 -11 87 -35 154 -66 179 -19 16 -71 176 -81 248 -4 29 -15 64 -26 77 -10
13 -19 28 -19 34 0 5 -10 25 -23 44 -13 18 -29 49 -35 68 -7 18 -20 42 -30 53
-9 10 -24 40 -32 65 -15 46 -16 47 -71 58 -69 14 -75 17 -95 55 -14 28 -14 35
0 77 22 62 20 74 -13 115 -25 32 -28 44 -26 92 2 47 8 62 31 87 16 16 43 37
60 46 18 10 62 34 98 55 66 39 172 77 213 77 12 0 35 11 50 25 22 19 39 24 79
25 44 0 57 -5 106 -42z m-677 -263 c0 -25 -5 -31 -26 -33 -14 -2 -38 3 -55 9
-26 11 -27 13 -8 16 12 2 30 13 40 23 27 28 49 21 49 -15z m1430 -141 c16 -6
45 -54 45 -74 0 -5 -15 -10 -33 -10 -24 0 -41 8 -62 30 -16 16 -26 32 -24 34
4 4 28 15 56 25 1 1 9 -2 18 -5z m-255 -30 c0 -8 -5 -12 -10 -9 -6 4 -8 11 -5
16 9 14 15 11 15 -7z m93 -41 c-7 -2 -21 -2 -30 0 -10 3 -4 5 12 5 17 0 24 -2
18 -5z m-1423 -1000 c7 -21 19 -46 28 -56 8 -9 23 -52 33 -95 48 -213 69 -265
112 -276 26 -6 62 -67 72 -118 4 -20 18 -51 31 -69 13 -18 24 -37 24 -41 0 -4
19 -27 42 -49 38 -37 44 -48 48 -98 l5 -56 50 -10 c73 -16 72 -38 -5 -114
l-62 -60 -35 14 c-66 28 -97 13 -51 -24 25 -21 20 -32 -26 -59 l-34 -20 -6 37
c-3 20 -6 65 -6 99 0 54 -3 65 -19 69 -11 3 -23 21 -30 44 -7 22 -18 43 -26
45 -16 6 -23 40 -29 120 -2 28 -10 62 -20 75 -12 17 -16 46 -16 114 0 72 -5
102 -25 149 -13 33 -29 101 -36 155 -6 53 -17 105 -24 117 -14 22 -19 57 -17
112 2 42 8 41 22 -5z m-803 -945 c-2 -18 -4 -4 -4 32 0 36 2 50 4 33 2 -18 2
-48 0 -65z m999 -262 c-4 -21 -13 -36 -21 -36 -7 0 -20 -3 -29 -6 -25 -10 -20
23 11 62 31 42 49 32 39 -20z m-586 -348 c32 -31 31 -53 -3 -64 -27 -8 -77 45
-77 81 0 22 3 25 25 19 14 -4 39 -19 55 -36z m1680 -662 c0 -11 -19 -15 -25
-6 -3 5 1 10 9 10 9 0 16 -2 16 -4z m-9483 -732 c13 -4 21 -10 18 -14 -3 -5 8
-18 24 -29 52 -38 115 -61 166 -61 28 -1 59 -5 70 -10 12 -5 -47 -9 -152 -9
-162 -1 -173 0 -183 19 -6 11 -17 20 -25 20 -26 0 -26 20 1 55 26 35 40 40 81
29z"/>
<path d="M8772 5060 c0 -14 2 -19 5 -12 2 6 2 18 0 25 -3 6 -5 1 -5 -13z"/>
<path d="M8871 4826 c12 -10 59 -15 59 -6 0 5 -14 10 -32 10 -17 0 -29 -2 -27
-4z"/>
<path d="M8964 4742 c-7 -4 -14 -20 -15 -37 -3 -22 0 -31 14 -33 14 -3 17 4
17 37 0 23 -1 41 -2 41 -2 0 -8 -4 -14 -8z"/>
<path d="M4210 6451 c0 -20 -18 -31 -51 -31 -11 0 -17 -4 -14 -10 3 -5 20 -7
38 -3 39 7 34 3 42 36 5 17 3 27 -4 27 -6 0 -11 -9 -11 -19z"/>
<path d="M4106 6372 c-2 -4 -1 -14 3 -21 6 -10 10 -9 14 3 6 16 -8 32 -17 18z"/>
<path d="M4490 6309 c-9 -6 -89 -9 -215 -8 -308 4 -308 4 -343 -29 -64 -60
-64 -180 -2 -366 17 -49 30 -100 30 -113 0 -24 -76 -106 -194 -210 -56 -50
-89 -92 -116 -153 -12 -25 -28 -57 -36 -72 -9 -18 -14 -58 -14 -126 0 -86 3
-103 21 -126 16 -21 20 -36 16 -69 -12 -107 -38 -152 -108 -188 -58 -29 -162
-117 -185 -155 -12 -20 -57 -70 -100 -112 -51 -50 -88 -97 -105 -132 -69 -141
-92 -186 -105 -201 -26 -29 -54 -118 -54 -172 0 -64 23 -195 49 -285 21 -72
45 -180 61 -276 5 -33 16 -66 24 -75 8 -9 18 -29 22 -45 4 -16 18 -46 31 -65
19 -27 23 -43 18 -69 -5 -28 -2 -37 24 -61 17 -16 31 -36 31 -44 0 -19 47 -57
70 -57 11 0 20 -10 24 -25 4 -15 17 -30 31 -35 14 -5 29 -20 34 -32 5 -13 21
-34 35 -47 14 -14 26 -30 26 -37 0 -7 23 -37 50 -67 28 -30 50 -59 50 -64 0
-5 -7 -18 -15 -30 l-15 -21 -28 28 c-16 15 -35 45 -43 67 -13 33 -21 40 -64
54 -32 10 -54 23 -60 37 -14 31 -22 27 -30 -14 -11 -59 -23 -73 -54 -61 -22 8
-37 5 -76 -15 -83 -40 -121 -67 -135 -93 -9 -17 -22 -25 -40 -25 -23 0 -29 6
-34 30 -4 24 -15 35 -43 46 -34 15 -39 15 -66 -1 -22 -13 -39 -16 -71 -10 -22
4 -58 6 -78 6 -33 -1 -40 3 -62 38 -14 21 -38 49 -54 62 -16 13 -35 35 -42 47
-9 19 -17 22 -38 17 -15 -4 -29 -8 -31 -10 -2 -2 11 -21 28 -42 17 -21 31 -43
31 -50 0 -20 -59 -16 -67 5 -3 9 -21 31 -40 49 -30 28 -33 36 -28 65 4 21 0
50 -10 78 -60 158 -58 149 -44 228 11 61 18 77 41 93 23 16 27 28 30 72 l3 52
53 6 c71 9 99 29 107 77 11 69 -2 108 -43 128 -21 10 -53 18 -73 17 -52 -1
-153 -61 -223 -133 -46 -47 -65 -60 -88 -60 l-30 0 4 66 c4 58 8 70 33 91 23
20 30 37 37 85 8 59 32 111 70 154 22 25 39 105 26 128 -6 11 -23 16 -52 16
-24 0 -58 3 -75 6 -27 6 -31 11 -31 39 0 27 -5 34 -27 39 -37 10 -60 -13 -41
-43 7 -11 18 -21 25 -21 29 0 33 -38 23 -182 -12 -166 -18 -208 -30 -208 -4 0
-11 18 -15 39 -9 55 -25 66 -64 46 -36 -18 -40 -46 -15 -99 22 -45 13 -77 -31
-110 l-35 -27 -18 30 c-9 17 -20 31 -23 31 -3 0 -23 -37 -45 -82 -34 -75 -38
-90 -36 -158 1 -41 -4 -111 -12 -155 -8 -44 -18 -111 -22 -150 -4 -44 -14 -79
-25 -94 -11 -13 -19 -35 -19 -50 0 -25 -16 -61 -61 -141 -15 -28 -19 -55 -19
-134 0 -84 -3 -104 -22 -134 -20 -33 -21 -39 -9 -106 l12 -71 -34 -65 c-29
-56 -41 -69 -85 -90 l-50 -25 16 -30 c27 -51 33 -109 17 -162 -8 -26 -15 -71
-15 -100 0 -70 -6 -81 -50 -93 l-38 -10 -8 -78 c-8 -77 -9 -105 -7 -277 0 -49
0 -126 0 -170 0 -56 4 -90 16 -112 25 -48 22 -113 -8 -157 -17 -26 -25 -50
-25 -81 0 -41 -3 -47 -41 -72 -22 -14 -47 -39 -55 -55 -12 -24 -18 -27 -34
-18 -11 6 -29 28 -40 49 -10 21 -25 41 -32 44 -18 6 -53 -19 -39 -28 22 -13
12 -65 -19 -97 -16 -17 -30 -34 -30 -39 0 -4 15 -10 32 -14 92 -18 134 -28
148 -36 72 -42 91 -49 109 -39 25 13 91 13 91 0 0 -6 15 -17 33 -26 24 -12 41
-34 70 -94 36 -72 42 -80 80 -92 34 -11 42 -19 47 -43 11 -51 29 -77 53 -73
14 2 23 11 25 26 4 23 31 29 79 16 57 -15 28 -72 -47 -94 -55 -16 -69 -32 -56
-66 5 -14 8 -14 22 0 8 9 25 16 37 16 12 0 39 5 59 10 52 15 67 62 47 149 -12
57 -15 61 -45 67 -18 3 -40 14 -48 23 -15 16 -14 21 6 59 21 39 26 42 64 42
33 0 43 4 47 20 3 11 10 20 16 20 19 0 24 -30 9 -48 -9 -9 -18 -29 -20 -44 -4
-23 1 -33 29 -53 l33 -26 26 30 c36 43 62 39 114 -15 25 -25 55 -50 68 -55 12
-5 27 -19 32 -31 5 -13 9 -17 9 -10 1 22 49 62 75 62 21 0 26 6 35 50 15 67
14 86 -4 103 -11 12 -12 20 -2 46 9 23 9 33 0 42 -10 10 -15 6 -22 -14 -14
-37 -32 -34 -101 15 -59 41 -59 41 -101 28 -32 -11 -44 -11 -46 -3 -3 7 -15
27 -29 45 -13 18 -40 57 -60 86 -30 46 -39 53 -57 46 -39 -14 -115 -10 -132 7
-14 14 -13 17 8 37 12 12 43 32 67 45 33 18 44 29 42 43 -13 71 -21 222 -20
356 1 86 -1 160 -4 164 -12 12 -18 -39 -14 -121 2 -44 -3 -133 -11 -197 -16
-113 -18 -120 -57 -167 -41 -51 -81 -71 -138 -71 -15 0 -52 -12 -82 -27 -73
-35 -88 -25 -84 58 2 50 -1 61 -22 84 l-25 27 2 223 c2 191 5 231 22 281 11
33 22 73 26 90 3 18 15 40 25 49 11 10 22 37 26 62 3 24 13 50 21 58 9 9 17
55 24 132 7 87 15 125 28 143 10 14 22 41 26 60 4 19 13 46 20 60 7 14 19 39
25 57 7 17 18 34 25 37 12 4 46 69 115 221 10 22 21 60 25 84 4 24 13 58 20
75 7 17 18 58 24 91 10 55 68 193 82 194 3 1 15 -19 27 -43 17 -34 22 -61 22
-124 0 -64 4 -89 20 -114 11 -18 20 -40 20 -47 0 -8 12 -27 26 -42 25 -26 25
-27 10 -78 -8 -29 -29 -70 -46 -91 -17 -22 -34 -55 -37 -74 -3 -19 -15 -45
-26 -57 -11 -11 -35 -44 -54 -73 -29 -42 -36 -62 -40 -121 -3 -38 -1 -95 5
-125 9 -46 7 -63 -9 -105 -18 -47 -18 -52 -3 -92 15 -38 20 -43 49 -43 27 0
37 7 59 41 15 22 31 62 35 89 4 26 17 60 29 74 11 15 28 53 37 84 27 92 60
147 99 166 35 17 41 28 66 126 15 56 23 66 67 81 32 10 38 9 50 -7 7 -10 13
-43 13 -75 0 -64 19 -97 59 -101 20 -3 26 5 45 53 20 54 22 55 40 38 45 -43
106 -30 120 26 5 18 11 22 28 18 13 -3 29 -10 36 -16 16 -13 15 -61 -2 -95 -8
-15 -16 -38 -17 -52 -4 -23 -1 -25 35 -25 39 0 40 0 51 50 6 28 19 64 28 82 9
18 17 40 17 50 1 31 23 50 99 82 88 38 91 36 91 -65 0 -170 99 -138 121 38 10
84 18 98 54 98 23 0 95 46 95 60 0 6 20 20 45 32 29 14 45 28 45 41 0 10 4 26
9 36 9 16 16 16 66 6 31 -6 70 -22 88 -36 44 -34 225 -93 268 -87 19 3 47 2
62 -3 16 -4 51 -4 79 1 66 13 109 1 184 -51 32 -23 72 -46 89 -51 16 -5 40
-15 53 -21 32 -15 93 2 211 60 52 26 110 50 130 54 20 4 68 17 106 28 46 14
111 24 190 28 94 4 124 9 140 23 11 10 36 21 55 25 19 4 53 18 75 30 22 13 57
27 77 30 20 4 51 18 69 31 21 15 47 24 69 24 26 0 43 7 60 25 13 14 32 25 43
25 36 0 180 41 226 65 26 12 73 26 106 30 33 4 66 12 73 18 7 5 31 10 55 11
l42 1 -4 80 c-4 90 -14 125 -35 125 -34 0 -195 164 -222 228 -17 39 -44 42
-85 8 -15 -13 -48 -27 -71 -31 -24 -4 -57 -12 -75 -18 -25 -8 -38 -8 -56 2
-21 11 -29 9 -73 -18 -27 -17 -70 -36 -95 -42 -42 -11 -53 -10 -110 11 -74 27
-55 26 -317 2 -188 -17 -207 -21 -263 -50 -46 -24 -65 -29 -82 -22 -12 5 -16
9 -9 9 7 1 17 12 23 25 7 14 26 29 48 36 33 11 43 22 75 86 24 49 56 92 96
130 73 70 115 133 131 199 7 28 18 64 26 82 7 17 14 64 15 103 2 68 1 74 -25
96 -16 13 -35 24 -42 24 -29 0 -30 51 -2 101 17 29 27 62 27 87 0 29 8 49 33
80 37 46 80 83 122 105 22 11 37 33 59 84 16 37 37 86 47 109 11 22 24 67 30
99 6 33 17 71 24 85 7 14 20 63 29 107 12 66 13 97 4 171 -14 112 -6 150 63
337 35 92 24 180 -34 294 -12 25 -72 67 -136 97 -32 14 -36 14 -86 -10 -28
-14 -60 -26 -70 -26 -10 0 -42 16 -71 35 -29 19 -59 35 -67 35 -8 0 -41 -25
-73 -55 -32 -31 -63 -54 -68 -52 -6 2 -17 23 -25 48 l-14 44 -14 -32 c-7 -19
-27 -39 -45 -49 -18 -9 -46 -28 -63 -43 -16 -15 -42 -35 -57 -44 -26 -16 -28
-16 -38 2 -16 30 -14 34 45 100 30 34 55 66 55 70 0 5 21 32 46 60 45 50 107
91 138 91 18 0 87 53 142 110 46 47 48 59 18 108 -12 18 -24 22 -62 22 -50 0
-83 -15 -153 -68 -24 -18 -63 -38 -87 -44 -36 -9 -47 -17 -58 -44 -9 -22 -26
-39 -47 -47 -17 -8 -38 -26 -46 -41 -14 -25 -86 -85 -136 -113 -12 -7 -40 -31
-61 -53 -72 -75 -79 -81 -130 -120 -45 -33 -54 -37 -69 -26 -13 9 -16 20 -11
40 8 34 80 106 105 106 11 0 33 11 49 25 17 14 34 25 39 25 5 0 27 23 48 52
22 29 57 70 78 93 20 22 40 51 42 65 3 14 10 47 16 73 6 27 7 52 3 57 -5 4
-31 26 -57 49 -42 36 -45 41 -25 41 13 1 48 9 78 20 30 11 81 19 113 20 59 0
66 6 51 44 -7 18 -61 22 -84 5z m-2440 -2914 c0 -8 -6 -15 -14 -15 -17 0 -28
14 -19 24 12 12 33 6 33 -9z m1440 -105 c0 -5 -4 -10 -10 -10 -5 0 -10 5 -10
10 0 6 5 10 10 10 6 0 10 -4 10 -10z m1064 -428 c15 -18 15 -21 -3 -44 -22
-27 -68 -40 -114 -31 -20 4 -27 11 -27 28 0 53 107 87 144 47z m778 -53 c21
-11 21 -12 3 -25 -23 -17 -79 -18 -107 -3 -21 11 -21 12 -3 25 23 17 79 18
107 3z m-3661 -2180 c25 -13 19 -23 -36 -49 -50 -24 -66 -21 -58 13 10 42 52
59 94 36z m326 -21 c-9 -4 -26 -4 -39 1 l-23 9 25 10 c30 12 62 -5 37 -20z
m-242 -288 c3 -5 -1 -10 -9 -10 -9 0 -16 5 -16 10 0 6 4 10 9 10 6 0 13 -4 16
-10z"/>
<path d="M2105 5954 c-44 -29 -88 -54 -97 -54 -9 0 -25 -12 -35 -26 -10 -14
-39 -51 -64 -82 -25 -31 -51 -66 -57 -78 -6 -11 -35 -33 -64 -49 -29 -15 -66
-39 -83 -53 -37 -31 -92 -115 -101 -156 -4 -17 -13 -41 -21 -53 -13 -19 -12
-33 11 -126 14 -57 32 -122 40 -144 8 -22 17 -67 21 -99 7 -62 40 -138 84
-191 14 -18 36 -45 48 -61 32 -42 81 -52 184 -37 55 8 103 22 139 41 50 26 55
33 62 71 4 23 12 51 17 62 6 11 11 31 11 45 0 14 4 27 9 30 5 3 19 36 32 72
16 46 36 78 62 103 46 44 65 105 66 211 0 41 5 98 11 125 7 28 14 84 17 126 9
132 -43 232 -140 268 -18 7 -29 22 -37 49 -17 66 -26 66 -115 6z"/>
<path d="M7878 4183 c7 -3 16 -2 19 1 4 3 -2 6 -13 5 -11 0 -14 -3 -6 -6z"/>
<path d="M2320 4115 c0 -39 14 -47 24 -12 9 35 7 47 -9 47 -10 0 -15 -11 -15
-35z"/>
<path d="M7714 3919 c-17 -33 -16 -36 6 -39 32 -5 40 1 40 29 0 42 -26 47 -46
10z"/>
<path d="M4900 3491 c0 -6 5 -13 10 -16 6 -3 10 1 10 9 0 9 -4 16 -10 16 -5 0
-10 -4 -10 -9z"/>
<path d="M7773 3000 c-12 -5 -25 -21 -29 -35 -8 -31 6 -43 85 -76 44 -18 55
-19 62 -8 17 27 9 65 -20 97 -31 33 -57 39 -98 22z"/>
<path d="M7300 2971 c-14 -3 -42 -19 -63 -35 -33 -26 -43 -28 -87 -23 -27 3
-63 16 -79 28 -25 18 -34 20 -60 11 -19 -7 -33 -7 -36 -1 -14 22 -45 8 -63
-28 -11 -21 -27 -51 -36 -68 -30 -57 -20 -98 33 -124 20 -11 47 -31 60 -45 14
-14 30 -26 36 -26 18 0 151 -68 165 -84 6 -9 27 -18 46 -22 l34 -6 0 -60 c0
-69 32 -153 60 -161 10 -3 31 -23 47 -45 l30 -40 57 60 c31 33 62 70 68 82 6
11 12 57 12 101 l1 79 45 17 c41 15 45 20 42 45 -2 16 -9 35 -16 41 -13 14
-159 24 -191 13 -34 -12 -108 8 -130 36 -14 18 -34 27 -70 32 -63 9 -68 28
-23 82 29 35 38 40 78 40 67 0 87 9 109 46 l20 34 -29 15 c-16 8 -30 14 -32
14 -2 -1 -14 -4 -28 -8z"/>
<path d="M8251 2916 c-12 -18 -21 -39 -21 -46 0 -8 -10 -4 -25 10 -22 21 -25
21 -31 6 -4 -10 -18 -22 -32 -27 l-26 -10 28 -14 c16 -8 35 -15 42 -15 10 0
14 -13 14 -46 0 -79 5 -82 117 -76 146 7 203 42 188 118 -7 39 -54 98 -96 120
-15 7 -53 14 -83 14 -51 0 -56 -2 -75 -34z"/>
<path d="M2809 2902 c-14 -6 -14 -10 1 -35 l18 -28 21 27 c17 21 19 29 9 36
-15 9 -27 9 -49 0z"/>
<path d="M2946 2873 c9 -40 17 -45 58 -38 41 8 42 12 20 43 -11 15 -25 22 -50
22 -32 0 -34 -2 -28 -27z"/>
<path d="M8901 2844 c-86 -23 -138 -50 -146 -75 -6 -18 0 -29 29 -56 45 -42
75 -42 159 -3 36 17 69 30 74 30 14 0 43 60 43 91 0 28 -1 29 -52 28 -29 0
-77 -7 -107 -15z"/>
<path d="M8008 2725 c-36 -31 -35 -45 1 -45 31 0 45 12 54 48 7 30 -19 29 -55
-3z"/>
<path d="M6084 2651 c-4 -22 -1 -45 10 -67 9 -19 16 -43 16 -53 0 -10 9 -53
21 -97 11 -43 29 -142 39 -219 29 -207 50 -317 65 -341 20 -31 62 -36 80 -10
8 11 15 30 15 41 0 11 9 38 21 59 11 21 25 63 29 94 5 30 17 63 27 74 24 27
28 128 8 198 -9 30 -20 75 -26 100 -7 33 -22 57 -54 90 -25 25 -62 70 -83 100
l-38 55 -62 5 -62 5 -6 -34z"/>
<path d="M10822 2269 c-9 -11 -36 -30 -60 -41 -70 -34 -69 -96 3 -83 17 3 31
10 33 15 2 5 14 4 28 -2 20 -10 27 -9 35 3 16 25 6 129 -12 129 -5 0 -17 -9
-27 -21z"/>
<path d="M9942 2183 c-14 -16 -31 -24 -49 -23 -16 1 -37 1 -48 0 -19 -1 -18
-2 3 -10 31 -13 28 -46 -8 -87 -36 -41 -37 -47 -6 -84 13 -15 26 -33 28 -40 2
-7 28 -9 87 -3 75 6 86 10 109 35 14 16 32 29 41 30 11 0 8 4 -8 12 -20 10
-26 8 -42 -12 -24 -29 -49 -24 -106 23 l-43 34 32 15 c39 19 59 70 43 109
l-10 26 -23 -25z"/>
<path d="M10450 2095 c0 -30 6 -32 19 -6 8 14 7 20 -4 25 -11 4 -15 -2 -15
-19z"/>
<path d="M1192 2012 c-56 -37 -72 -62 -72 -114 0 -21 10 -39 31 -59 28 -27 31
-32 20 -55 -14 -31 7 -68 48 -82 26 -9 30 -7 52 29 15 24 34 40 52 44 46 11
57 59 35 158 -12 57 -23 60 -32 8 -7 -47 -29 -69 -51 -51 -10 8 -12 18 -6 29
5 9 13 33 19 53 10 35 8 39 -16 57 l-27 19 -53 -36z"/>
<path d="M10551 2043 c-1 -6 -4 -18 -7 -27 -4 -11 -1 -16 10 -16 18 0 19 6 6
35 -5 11 -9 15 -9 8z"/>
<path d="M9635 1994 c-30 -40 -30 -39 8 -48 26 -6 27 -5 27 39 0 25 -2 45 -4
45 -2 0 -16 -16 -31 -36z"/>
<path d="M10979 1993 c-10 -32 -9 -38 6 -49 13 -10 23 -10 41 -2 43 20 24 88
-25 88 -5 0 -15 -16 -22 -37z"/>
<path d="M10613 1953 c9 -2 23 -2 30 0 6 3 -1 5 -18 5 -16 0 -22 -2 -12 -5z"/>
<path d="M10397 1928 c-8 -27 8 -47 24 -31 13 13 9 45 -7 50 -6 2 -14 -6 -17
-19z"/>
<path d="M6700 1915 c-25 -13 -61 -39 -79 -59 -20 -20 -45 -36 -57 -36 -12 0
-33 -13 -47 -30 -18 -21 -35 -30 -56 -30 -49 0 -71 -30 -71 -98 0 -47 6 -67
29 -104 36 -57 100 -128 114 -128 6 0 21 -12 32 -26 18 -22 26 -25 53 -19 27
5 43 23 92 97 76 114 90 163 86 295 -3 85 -8 107 -26 133 -12 16 -22 30 -23
30 -1 -1 -22 -12 -47 -25z"/>
<path d="M8671 1914 c0 -11 3 -14 6 -6 3 7 2 16 -1 19 -3 4 -6 -2 -5 -13z"/>
<path d="M7673 1861 c-30 -27 -53 -58 -53 -69 0 -33 -30 -95 -62 -127 -43 -44
-48 -56 -33 -91 16 -40 95 -104 127 -104 50 0 81 59 97 185 6 44 14 96 19 116
7 27 5 48 -10 87 -11 29 -22 52 -26 52 -4 0 -31 -22 -59 -49z"/>
<path d="M10702 1760 c0 -14 2 -19 5 -12 2 6 2 18 0 25 -3 6 -5 1 -5 -13z"/>
<path d="M1854 1633 c-5 -18 -2 -30 8 -37 8 -6 23 -23 32 -38 30 -46 56 -32
56 30 0 32 -7 43 -37 60 -35 19 -52 15 -59 -15z"/>
<path d="M9110 1573 c-1 -4 -3 -38 -6 -76 -5 -77 11 -156 29 -138 17 17 38 13
63 -10 21 -20 24 -20 39 -5 12 11 14 25 9 51 -5 27 -3 36 10 41 9 3 16 15 16
25 0 17 -3 18 -21 9 -25 -14 -72 -5 -92 18 -9 9 -17 32 -19 51 -2 19 -9 36
-15 39 -7 2 -13 0 -13 -5z"/>
<path d="M1190 1510 c0 -13 5 -18 15 -14 8 4 15 10 15 14 0 4 -7 10 -15 14
-10 4 -15 -1 -15 -14z"/>
<path d="M5547 1413 c-3 -5 -2 -15 2 -22 7 -10 10 -10 16 -1 4 6 3 16 -3 22
-5 5 -12 6 -15 1z"/>
<path d="M9297 1413 c-11 -10 -8 -51 4 -58 18 -12 55 4 67 29 6 13 8 27 5 30
-8 8 -68 8 -76 -1z"/>
<path d="M9555 1360 c-3 -5 -3 -15 1 -21 6 -11 23 6 24 24 0 10 -18 9 -25 -3z"/>
<path d="M10652 1335 c0 -16 2 -22 5 -12 2 9 2 23 0 30 -3 6 -5 -1 -5 -18z"/>
<path d="M9938 1307 c24 -7 36 -7 44 1 9 9 1 12 -32 11 l-45 -1 33 -11z"/>
<path d="M10850 1301 c0 -25 6 -27 13 -6 4 8 2 17 -3 20 -6 4 -10 -3 -10 -14z"/>
<path d="M9446 1285 c-10 -8 -23 -16 -28 -17 -15 -5 46 -108 62 -106 29 6 22
139 -8 138 -4 0 -16 -7 -26 -15z"/>
<path d="M9115 1269 c-4 -12 -2 -26 4 -32 8 -8 11 -2 11 21 0 37 -6 41 -15 11z"/>
<path d="M11037 1263 c-4 -3 -7 -17 -7 -30 0 -18 -8 -27 -30 -34 -28 -10 -30
-14 -30 -63 0 -29 5 -57 11 -63 6 -6 9 -23 7 -39 -3 -27 -6 -29 -58 -35 -30
-3 -63 -9 -72 -13 -9 -4 -26 -3 -37 4 -20 10 -21 8 -21 -37 0 -34 -6 -53 -21
-69 -18 -20 -19 -25 -8 -42 26 -35 84 -79 122 -91 20 -7 37 -17 37 -21 0 -20
75 -90 96 -90 53 0 54 3 53 139 -1 69 -4 113 -6 98 -3 -16 -10 -30 -18 -33
-19 -8 -95 15 -95 28 0 6 -7 20 -17 30 -15 17 -15 18 3 18 11 0 35 11 54 24
19 13 45 26 58 30 21 7 22 11 22 132 0 137 -14 187 -43 157z"/>
<path d="M10776 1238 c-15 -21 -9 -49 15 -63 6 -4 7 -19 4 -36 -9 -41 1 -50
35 -31 31 18 40 37 40 89 0 58 -63 86 -94 41z"/>
<path d="M9606 1233 c-14 -14 -4 -32 29 -52 l35 -20 0 24 c0 17 -9 29 -29 39
-16 9 -31 12 -35 9z"/>
<path d="M7284 1219 c-3 -5 6 -9 20 -9 31 0 34 6 6 13 -11 3 -23 1 -26 -4z"/>
<path d="M9256 1214 c-10 -27 -7 -52 9 -58 8 -3 23 -21 32 -41 29 -61 65 -37
43 29 -22 68 -70 107 -84 70z"/>
<path d="M4736 1189 c-65 -51 -71 -250 -8 -299 33 -26 41 -25 93 10 24 16 58
30 74 30 38 0 48 7 69 48 14 28 15 36 3 60 -11 23 -11 33 6 70 10 24 16 50 13
58 -11 28 -39 10 -50 -31 -7 -22 -17 -40 -24 -39 -7 1 -20 2 -30 3 -13 0 -23
14 -31 41 -6 22 -13 40 -15 40 -2 0 -19 7 -39 15 -32 13 -37 13 -61 -6z"/>
<path d="M4244 1189 c-4 -6 -10 -26 -14 -45 -7 -28 -5 -34 12 -40 20 -6 118 4
118 12 0 16 -33 65 -49 74 -26 13 -58 13 -67 -1z"/>
<path d="M8660 1120 c-18 -11 18 -22 37 -11 13 7 12 9 -5 13 -11 3 -25 2 -32
-2z"/>
<path d="M9206 1121 c-8 -13 4 -42 15 -35 12 7 12 44 0 44 -6 0 -12 -4 -15 -9z"/>
<path d="M10439 1109 c16 -6 28 -6 35 1 7 7 -1 10 -24 9 -33 0 -34 -1 -11 -10z"/>
<path d="M4456 1093 c-3 -3 -6 -30 -6 -60 0 -50 -2 -53 -24 -53 -27 0 -30 -3
-40 -42 -5 -21 -2 -28 13 -33 30 -9 49 4 55 40 4 19 17 42 30 52 12 10 28 28
34 40 10 18 8 23 -11 35 -40 26 -44 28 -51 21z"/>
<path d="M9840 1070 c-13 -8 -12 -12 6 -31 l22 -21 12 22 c10 18 9 24 -1 31
-18 11 -21 11 -39 -1z"/>
<path d="M4581 1041 c-13 -18 -17 -32 -11 -36 5 -3 10 -14 10 -24 0 -10 8 -25
18 -35 18 -15 20 -15 35 2 14 16 15 24 4 67 -7 27 -17 50 -23 52 -7 2 -21 -9
-33 -26z"/>
<path d="M10624 1060 c17 -6 36 -5 45 0 11 7 3 9 -29 9 -42 -1 -43 -1 -16 -9z"/>
<path d="M9354 1052 c-18 -12 -25 -48 -15 -76 15 -37 37 -32 51 10 11 32 10
38 -6 55 -11 10 -24 15 -30 11z"/>
<path d="M9658 1033 c-2 -10 -1 -29 3 -43 6 -20 7 -17 8 18 1 44 -4 54 -11 25z"/>
<path d="M10747 1030 c-4 -16 0 -20 20 -20 25 0 26 0 8 20 -10 11 -19 20 -20
20 -2 0 -5 -9 -8 -20z"/>
<path d="M4196 1006 c-10 -24 -21 -36 -35 -36 -18 0 -41 -26 -41 -47 0 -4 11
-13 25 -19 26 -13 35 -7 49 30 4 11 12 16 22 12 39 -15 60 -16 78 -3 35 25 14
51 -76 95 -4 2 -14 -13 -22 -32z"/>
<path d="M5092 1004 c4 -21 22 -23 26 -1 2 10 -3 17 -13 17 -10 0 -15 -6 -13
-16z"/>
<path d="M10500 970 c0 -5 5 -10 11 -10 5 0 7 5 4 10 -3 6 -8 10 -11 10 -2 0
-4 -4 -4 -10z"/>
<path d="M8960 960 c0 -5 5 -10 10 -10 6 0 10 5 10 10 0 6 -4 10 -10 10 -5 0
-10 -4 -10 -10z"/>
<path d="M10232 890 c-12 -16 -21 -42 -21 -57 1 -17 3 -21 6 -11 2 10 15 21
29 24 19 5 24 13 24 40 0 42 -10 43 -38 4z"/>
<path d="M250 875 c0 -8 7 -15 16 -15 14 0 14 3 4 15 -7 8 -14 15 -16 15 -2 0
-4 -7 -4 -15z"/>
<path d="M10641 853 c-8 -27 -7 -39 1 -45 7 -4 13 -6 14 -5 0 1 8 16 16 33 14
29 14 32 -3 42 -16 10 -19 7 -28 -25z"/>
<path d="M102 830 c0 -19 2 -27 5 -17 2 9 2 25 0 35 -3 9 -5 1 -5 -18z"/>
<path d="M840 821 c0 -6 9 -11 20 -11 11 0 23 -8 26 -17 15 -49 24 -57 20 -19
-6 45 -4 43 -39 51 -17 5 -27 3 -27 -4z"/>
<path d="M5170 820 c-11 -7 -7 -10 18 -10 20 0 31 4 27 10 -8 13 -26 13 -45 0z"/>
<path d="M5441 821 c-9 -6 -9 -11 2 -20 11 -9 17 -8 26 3 9 10 8 15 -2 19 -8
3 -19 2 -26 -2z"/>
<path d="M7920 771 c0 -6 5 -13 10 -16 6 -3 10 1 10 9 0 9 -4 16 -10 16 -5 0
-10 -4 -10 -9z"/>
<path d="M27 705 c-25 -23 -27 -29 -27 -110 0 -87 10 -107 31 -61 9 19 8 29
-5 47 -23 34 -20 49 14 60 25 9 30 16 30 44 0 44 -9 48 -43 20z"/>
<path d="M10244 714 c-4 -10 -16 -27 -28 -36 -21 -17 -21 -18 10 -18 26 0 33
5 38 26 8 32 -10 57 -20 28z"/>
<path d="M10680 711 c0 -5 7 -14 15 -21 13 -10 15 -9 15 9 0 12 -6 21 -15 21
-8 0 -15 -4 -15 -9z"/>
<path d="M10005 687 c-4 -10 -5 -21 -1 -24 10 -10 18 4 13 24 -4 17 -4 17 -12
0z"/>
<path d="M800 683 c-58 -6 -64 -11 -49 -30 8 -9 14 -35 14 -57 0 -38 3 -42 43
-62 52 -25 62 -38 62 -86 0 -20 5 -49 11 -65 l12 -28 11 42 c15 55 45 89 89
97 67 13 58 50 -12 48 -48 -2 -57 8 -74 84 -15 65 -20 67 -107 57z"/>
<path d="M3566 673 c-3 -4 -6 -17 -6 -30 0 -12 -4 -23 -10 -23 -5 0 -12 -11
-16 -25 -7 -28 -24 -24 -24 6 0 14 -7 19 -25 19 -20 0 -25 -5 -25 -26 0 -17 6
-28 20 -31 13 -3 20 -14 20 -28 0 -38 32 -67 81 -74 54 -9 69 -5 69 17 0 37
-23 96 -46 118 -19 20 -22 29 -14 48 6 18 5 26 -5 29 -7 3 -16 3 -19 0z"/>
<path d="M2419 639 c-8 -17 -8 -31 1 -59 10 -29 10 -45 0 -74 -9 -29 -9 -40 1
-52 11 -13 14 -13 27 -1 11 11 11 19 3 35 -19 36 -13 71 14 84 36 16 33 53 -5
73 -28 14 -30 14 -41 -6z"/>
<path d="M10507 644 c-4 -4 -7 -25 -7 -46 0 -32 3 -38 21 -38 16 0 19 4 14 18
-4 9 -10 30 -14 45 -3 16 -9 25 -14 21z"/>
<path d="M10106 631 c-4 -6 -4 -39 0 -75 6 -56 9 -63 21 -50 8 8 19 14 26 14
6 0 3 6 -7 13 -14 10 -17 22 -13 50 5 37 -14 70 -27 48z"/>
<path d="M3208 613 c7 -3 16 -2 19 1 4 3 -2 6 -13 5 -11 0 -14 -3 -6 -6z"/>
<path d="M6163 595 c-28 -27 -29 -35 -4 -35 11 0 23 -4 26 -10 13 -20 23 -9
27 30 4 47 -13 52 -49 15z"/>
<path d="M8717 596 c-4 -15 -6 -31 -2 -34 10 -10 16 6 13 35 l-3 28 -8 -29z"/>
<path d="M76 581 c-11 -12 -15 -25 -10 -33 16 -29 37 -46 49 -42 32 13 24 94
-9 94 -7 0 -21 -9 -30 -19z"/>
<path d="M8311 583 c-11 -21 4 -57 20 -48 12 8 12 52 0 60 -6 3 -14 -3 -20
-12z"/>
<path d="M8865 579 c-10 -15 3 -25 16 -12 7 7 7 13 1 17 -6 3 -14 1 -17 -5z"/>
<path d="M4102 569 c2 -6 8 -10 13 -10 5 0 11 4 13 10 2 6 -4 11 -13 11 -9 0
-15 -5 -13 -11z"/>
<path d="M4605 569 c-4 -6 -3 -15 3 -21 6 -6 11 -4 15 6 7 18 -9 31 -18 15z"/>
<path d="M7927 574 c-4 -4 -7 -20 -7 -36 0 -35 23 -34 28 1 4 25 -10 46 -21
35z"/>
<path d="M2950 530 c-13 -8 -13 -12 0 -36 21 -38 36 -40 54 -6 11 22 12 32 3
41 -13 13 -37 14 -57 1z"/>
<path d="M585 519 c-10 -15 1 -23 20 -15 9 3 13 10 10 16 -8 13 -22 13 -30 -1z"/>
<path d="M1211 501 c-26 -36 -26 -45 0 -88 18 -29 20 -38 9 -63 -10 -24 -10
-33 0 -45 19 -23 39 -18 57 13 9 16 33 37 52 48 60 32 52 74 -15 74 -37 0 -51
14 -56 54 -4 40 -22 43 -47 7z"/>
<path d="M4845 511 c-5 -17 2 -71 10 -71 1 0 19 7 38 15 37 15 40 29 14 63
-15 19 -55 15 -62 -7z"/>
<path d="M6225 520 c3 -5 10 -10 16 -10 5 0 9 5 9 10 0 6 -7 10 -16 10 -8 0
-12 -4 -9 -10z"/>
<path d="M8230 519 c0 -5 5 -7 10 -4 6 3 10 8 10 11 0 2 -4 4 -10 4 -5 0 -10
-5 -10 -11z"/>
<path d="M6977 489 c-6 -23 1 -49 13 -49 4 0 10 6 13 14 7 17 -2 56 -13 56 -4
0 -10 -9 -13 -21z"/>
<path d="M5195 479 c-10 -15 3 -25 16 -12 7 7 7 13 1 17 -6 3 -14 1 -17 -5z"/>
<path d="M7863 468 c2 -7 10 -13 17 -13 7 0 15 6 18 13 2 7 -5 12 -18 12 -13
0 -20 -5 -17 -12z"/>
<path d="M536 442 c-18 -34 -9 -81 16 -91 10 -4 25 -18 32 -31 10 -20 19 -24
45 -22 38 3 109 56 122 91 11 28 4 40 -13 23 -7 -7 -31 -12 -54 -12 -33 0 -45
5 -57 24 -9 13 -30 28 -46 34 -28 10 -32 9 -45 -16z"/>
<path d="M2813 424 c-10 -26 14 -41 35 -21 15 16 15 19 2 27 -21 14 -30 12
-37 -6z"/>
<path d="M3767 427 c-4 -10 -7 -28 -7 -40 1 -20 2 -20 11 -4 6 10 9 28 7 40
-3 20 -4 20 -11 4z"/>
<path d="M5093 424 c-9 -23 11 -38 26 -20 13 16 7 36 -10 36 -5 0 -12 -7 -16
-16z"/>
<path d="M7482 400 c0 -19 2 -27 5 -17 2 9 2 25 0 35 -3 9 -5 1 -5 -18z"/>
<path d="M994 369 c-9 -16 2 -22 21 -11 15 8 16 10 1 15 -8 3 -18 2 -22 -4z"/>
<path d="M1422 373 c-6 -2 -10 -9 -6 -14 10 -17 104 -6 104 12 0 9 -76 11 -98
2z"/>
<path d="M2530 370 c0 -5 11 -10 25 -10 14 0 25 5 25 10 0 6 -11 10 -25 10
-14 0 -25 -4 -25 -10z"/>
<path d="M5050 360 c0 -11 2 -20 5 -20 2 0 9 9 15 20 9 16 8 20 -5 20 -8 0
-15 -9 -15 -20z"/>
<path d="M1362 292 c-37 -4 -52 -26 -30 -48 12 -12 18 -11 45 9 37 27 31 43
-15 39z"/>
<path d="M1567 274 c-3 -4 1 -20 9 -36 18 -35 35 -26 27 15 -5 25 -22 35 -36
21z"/>
<path d="M4657 243 c-4 -3 -7 -12 -7 -20 0 -15 26 -18 34 -4 7 11 -18 33 -27
24z"/>
<path d="M9410 235 c0 -8 4 -15 10 -15 5 0 7 7 4 15 -4 8 -8 15 -10 15 -2 0
-4 -7 -4 -15z"/>
<path d="M445 229 c-10 -15 3 -25 16 -12 7 7 7 13 1 17 -6 3 -14 1 -17 -5z"/>
<path d="M640 220 c0 -5 6 -10 14 -10 8 0 21 -3 30 -6 11 -4 16 -1 16 10 0 11
-9 16 -30 16 -16 0 -30 -4 -30 -10z"/>
<path d="M1137 187 c-9 -23 6 -36 36 -30 30 6 37 23 9 23 -10 0 -23 5 -29 11
-7 7 -12 6 -16 -4z"/>
<path d="M688 154 c-3 -3 -27 -8 -52 -12 -26 -4 -48 -11 -49 -17 -2 -12 85
-19 120 -10 20 5 22 9 13 25 -11 20 -22 25 -32 14z"/>
<path d="M1385 108 c-10 -26 2 -55 17 -40 8 8 8 18 1 34 -10 21 -12 21 -18 6z"/>
<path d="M1864 79 c-3 -6 0 -15 7 -20 22 -14 29 -11 29 11 0 21 -24 27 -36 9z"/>
<path d="M3266 58 c-8 -28 7 -72 16 -47 2 8 1 28 -2 44 l-7 30 -7 -27z"/>
<path d="M40 15 c0 -8 7 -15 15 -15 8 0 15 7 15 15 0 8 -7 15 -15 15 -8 0 -15
-7 -15 -15z"/>
</g>
</svg>
